<?xml version="1.0" encoding="UTF-8"?>
<svg version="1.1" xmlns="http://www.w3.org/2000/svg" width="430" height="513">
<path d="M0 0 C141.9 0 283.8 0 430 0 C430 169.29 430 338.58 430 513 C288.1 513 146.2 513 0 513 C0 343.71 0 174.42 0 0 Z " fill="#E6E4E5" transform="translate(0,0)"/>
<path d="M0 0 C141.9 0 283.8 0 430 0 C430 169.29 430 338.58 430 513 C429.34 513 428.68 513 428 513 C428 344.04 428 175.08 428 1 C354.41 1.33 280.82 1.66 205 2 C209.29 5.96 213.58 9.92 218 14 C236.99596051 31.92877172 251.92682978 54.31213136 258 80 C258.18038818 80.7525708 258.36077637 81.5051416 258.54663086 82.28051758 C263.51793767 104.63047337 258.41542539 126.15363876 251.71484375 147.44140625 C245.0109919 168.86801878 241.12486145 189.50269598 251.64453125 210.2421875 C257.60167179 220.16627265 264.7442225 225.85540029 276 229 C288.10737303 230.35613763 299.22135527 227.80805473 309.05078125 220.46875 C314.79046082 215.25756341 317.68159274 208.88456858 318.3125 201.1875 C318.03837185 198.39139284 317.66165293 195.72931832 317 193 C359.0363357 208.51245275 396.36198089 248.07117977 414.9440918 287.99365234 C427.47857441 315.7746084 432.12820334 350.29813261 424 380 C423.79020508 380.78149414 423.58041016 381.56298828 423.36425781 382.36816406 C415.84354537 409.37769619 401.31721511 431.99595058 382 452 C381.20207031 452.84949219 380.40414063 453.69898438 379.58203125 454.57421875 C364.60280725 470.13990502 346.01751677 481.97977893 327 492 C326.32646484 492.35916504 325.65292969 492.71833008 324.95898438 493.08837891 C314.0481593 498.82454686 302.6809765 503.081016 291.0625 507.125 C289.98838867 507.50334991 289.98838867 507.50334991 288.89257812 507.88934326 C286.84004084 508.60821429 284.78272302 509.31085174 282.72265625 510.0078125 C281.52390869 510.41660645 280.32516113 510.82540039 279.09008789 511.24658203 C276.13785169 511.96638932 274.7769133 512.09771971 272 511 C272.99257813 510.52691406 273.98515625 510.05382812 275.0078125 509.56640625 C301.64120988 496.68715955 324.174443 479.29559963 335.9375 451.3125 C336.21988525 450.64863281 336.50227051 449.98476563 336.79321289 449.30078125 C344.80494869 429.18673294 343.47116646 403.62198585 335.10693359 383.89355469 C328.44183667 368.84423028 318.98279265 356.14858587 308 344 C307.32195312 343.24847656 306.64390625 342.49695313 305.9453125 341.72265625 C287.32086807 322.17897959 261.84096013 308.11282884 238.94921875 294.35546875 C196.4975632 268.83693404 196.4975632 268.83693404 184 249 C183.21109375 247.83791016 183.21109375 247.83791016 182.40625 246.65234375 C177.92837444 239.20165636 178.3116979 231.41695139 179 223 C179.33 222.34 179.66 221.68 180 221 C179.34 221 178.68 221 178 221 C178 221.66 178 222.32 178 223 C176.85415483 224.14584517 175.70566632 225.28912393 174.546875 226.421875 C161.94477125 239.27856671 155.57689704 255.11608052 155.56030273 272.91992188 C156.14108205 294.22246869 169.20335012 311.69032493 183.25 326.6875 C191.51826827 335.64263068 198.00830525 346.41873306 198.5 358.875 C198.11874674 368.34483913 195.76501035 377.47325502 188.98828125 384.3515625 C179.25173553 392.42390492 168.36317264 394.03674404 156 393 C147.25930186 390.93785138 139.87025636 385.99684189 134.6875 378.6875 C127.31960023 366.66196332 128.37131436 355.44854348 131 342 C106.29049803 361.07879688 85.94958549 384.61776155 80.44140625 416.203125 C77.58198095 440.7992435 82.72830959 461.47184182 98 481 C106.66987974 491.60512075 116.329173 500.42730725 128.15234375 507.30859375 C130.57657998 508.74850361 132.78855686 510.25748938 135 512 C111.54653814 509.39056658 86.92297806 496.64102003 68 483 C67.46552246 482.61666504 66.93104492 482.23333008 66.38037109 481.83837891 C47.29446999 468.02807166 31.61509526 451.54978393 20 431 C19.63922363 430.36368652 19.27844727 429.72737305 18.90673828 429.07177734 C-0.00487588 395.07621091 -4.6071614 352.58072608 5 315 C5.3905519 313.35576018 5.77986528 311.71122571 6.16796875 310.06640625 C15.25032937 272.64916667 35.1758523 238.18977368 60 209 C60.86032836 207.96693904 61.7196597 206.93304716 62.578125 205.8984375 C73.30578256 193.01891604 84.84470899 180.98775908 96.71044922 169.15917969 C98.76517508 167.10986489 100.81443103 165.05518737 102.86328125 163 C104.19499165 161.66894975 105.52701188 160.33820939 106.859375 159.0078125 C107.45852722 158.40663605 108.05767944 157.80545959 108.67498779 157.18606567 C112.39743878 153.48379984 116.24227811 149.97114382 120.21722412 146.54122925 C122.68673329 144.40631156 125.09253818 142.20442287 127.5 140 C131.28934126 136.54424587 135.11083698 133.1347711 138.98046875 129.76953125 C142.16490375 126.97930097 145.30497139 124.1404514 148.4453125 121.30078125 C150.07769445 119.8306391 151.71763211 118.36881532 153.3671875 116.91796875 C165.43538602 106.2544294 176.55011427 95.06475165 186 82 C186.43828125 81.39542969 186.8765625 80.79085937 187.328125 80.16796875 C201.21955493 60.76082399 210.17624947 39.23454509 208 15 C207.06229849 11.36853779 205.6916041 8.32206588 204 5 C203.67 3.68 203.34 2.36 203 1 C136.01 1 69.02 1 0 1 C0 0.67 0 0.34 0 0 Z " fill="#F80000" transform="translate(0,0)"/>
<path d="M0 0 C0.66 0.33 1.32 0.66 2 1 C2 1.66 2 2.32 2 3 C0.5882217 3.53394179 -0.82970244 4.05165104 -2.25 4.5625 C-3.03890625 4.85253906 -3.8278125 5.14257812 -4.640625 5.44140625 C-7.19103452 6.04522837 -8.55322229 5.8473932 -11 5 C-9.21289414 4.13633178 -7.4201535 3.28431406 -5.625 2.4375 C-4.62726563 1.96183594 -3.62953125 1.48617188 -2.6015625 0.99609375 C-1.74304688 0.66738281 -0.88453125 0.33867187 0 0 Z " fill="#F82728" transform="translate(283,506)"/>
</svg>
