<?xml version="1.0" encoding="UTF-8"?>
<svg version="1.1" xmlns="http://www.w3.org/2000/svg" width="162" height="164">
<path d="M0 0 C53.46 0 106.92 0 162 0 C162 54.12 162 108.24 162 164 C108.54 164 55.08 164 0 164 C0 109.88 0 55.76 0 0 Z " fill="#FE0B0B" transform="translate(0,0)"/>
<path d="M0 0 C53.46 0 106.92 0 162 0 C162 54.12 162 108.24 162 164 C108.54 164 55.08 164 0 164 C0 109.88 0 55.76 0 0 Z M29.46484375 5.4140625 C28.57216797 5.92839844 27.67949219 6.44273438 26.75976562 6.97265625 C25.36274414 7.79056641 25.36274414 7.79056641 23.9375 8.625 C23.03322266 9.14707031 22.12894531 9.66914063 21.19726562 10.20703125 C18.45770901 11.79319341 15.72501568 13.38895114 13 15 C11.79587526 15.55743865 11.79587526 15.55743865 10.56742477 16.12613869 C5.32821241 18.65810999 5.32821241 18.65810999 2.04082584 23.21138191 C1.64654197 25.93021856 1.56834335 28.50552584 1.5949707 31.25292969 C1.56620346 32.2716214 1.53743622 33.29031311 1.50779724 34.33987427 C1.42820802 37.7019419 1.42316727 41.05893294 1.42578125 44.421875 C1.40125557 46.76591022 1.37479343 49.10992591 1.34648132 51.45391846 C1.30016218 56.3669532 1.29359395 61.27820557 1.31176758 66.19140625 C1.32954156 72.47364671 1.22428446 78.74702608 1.08564472 85.02750778 C0.99672548 89.86999781 0.9862454 94.71036772 0.99770164 99.55356598 C0.99146107 101.8677204 0.95821404 104.18197178 0.89693642 106.49532318 C0.16251064 118.42329729 0.16251064 118.42329729 4.67685509 128.93652916 C8.72817275 132.20779543 13.16529226 134.31716522 17.99565792 136.19422436 C20.64771908 137.26039281 23.04194742 138.66160438 25.48046875 140.14453125 C27.91363258 141.52626287 30.34912116 142.90379826 32.78540039 144.2800293 C37.58120679 147.00307559 42.32164825 149.79192387 47.015625 152.6875 C48.0053833 153.29231201 48.9951416 153.89712402 50.01489258 154.52026367 C51.92445952 155.69127118 53.82580855 156.87581572 55.7175293 158.07543945 C57.01557495 158.86760864 57.01557495 158.86760864 58.33984375 159.67578125 C59.09644287 160.14927002 59.85304199 160.62275879 60.63256836 161.1105957 C63.82945791 162.3116134 65.72641101 161.88171695 69 161 C71.56244125 159.83854575 71.56244125 159.83854575 74.02734375 158.296875 C74.97327393 157.73492432 75.9192041 157.17297363 76.89379883 156.59399414 C77.89822021 155.98547607 78.9026416 155.37695801 79.9375 154.75 C82.08502305 153.47111943 84.23348559 152.19381537 86.3828125 150.91796875 C87.47754883 150.26618652 88.57228516 149.6144043 89.70019531 148.94287109 C95.76703809 145.37081318 101.91897579 141.94915895 108.07202148 138.52832031 C118.6420762 133.09288349 118.6420762 133.09288349 128 126 C128.08847743 123.47905924 128.11527301 120.98569107 128.09765625 118.46484375 C128.0962413 117.71159317 128.09482635 116.95834259 128.09336853 116.18226624 C128.08775376 113.7673044 128.07519883 111.35243399 128.0625 108.9375 C128.0574869 107.30403779 128.05292366 105.67057414 128.04882812 104.03710938 C128.03777954 100.02470415 128.02050506 96.01236759 128 92 C128.70737305 91.73646729 129.41474609 91.47293457 130.14355469 91.20141602 C133.1605858 89.93245789 135.87910418 88.43092533 138.703125 86.77734375 C139.7653125 86.15666016 140.8275 85.53597656 141.921875 84.89648438 C143.02015625 84.25001953 144.1184375 83.60355469 145.25 82.9375 C146.36375 82.28716797 147.4775 81.63683594 148.625 80.96679688 C153.58315569 78.35434726 153.58315569 78.35434726 158 75 C158.388604 69.96258192 158.48518418 64.9239663 158.56982422 59.87329102 C158.60642567 58.17456279 158.66094039 56.47612037 158.73388672 54.77856445 C159.4896745 45.28184046 159.4896745 45.28184046 156.33227539 36.73901367 C153.96248587 35.13183628 151.64788225 34.08408615 149 33 C147.21010053 31.96277705 145.43288609 30.90340285 143.66796875 29.82421875 C141.84308291 28.77526862 140.01624137 27.72971385 138.1875 26.6875 C137.26001953 26.15060547 136.33253906 25.61371094 135.37695312 25.06054688 C134.48298828 24.54943359 133.58902344 24.03832031 132.66796875 23.51171875 C131.86641357 23.05240967 131.0648584 22.59310059 130.23901367 22.11987305 C127.2472309 20.60372262 127.2472309 20.60372262 124 20 C121.2312366 21.09149815 121.2312366 21.09149815 118.3515625 22.82421875 C117.26359375 23.44103516 116.175625 24.05785156 115.0546875 24.69335938 C113.92289062 25.35142578 112.79109375 26.00949219 111.625 26.6875 C110.5009375 27.32623047 109.376875 27.96496094 108.21875 28.62304688 C105.12829651 30.38928123 102.04881392 32.16278933 99 34 C97.90010742 34.565979 96.80021484 35.13195801 95.66699219 35.71508789 C92.63483296 37.82895627 92.63483296 37.82895627 92.31884766 41.66699219 C92.3197925 43.12729776 92.35340865 44.5878293 92.4140625 46.046875 C92.42679703 47.20367767 92.42679703 47.20367767 92.43978882 48.3838501 C92.47330705 50.84067097 92.54857096 53.29417628 92.625 55.75 C92.65510221 57.41792125 92.68247759 59.08589409 92.70703125 60.75390625 C92.77309155 64.83720981 92.87659201 68.91804339 93 73 C92.21367188 73.21398437 91.42734375 73.42796875 90.6171875 73.6484375 C85.78808819 75.45283098 81.54900831 77.99991073 77.125 80.625 C76.24585937 81.140625 75.36671875 81.65625 74.4609375 82.1875 C72.3042944 83.45335573 70.15082012 84.72428407 68 86 C68.0199855 85.21152679 68.03997101 84.42305359 68.06056213 83.61068726 C68.24117723 76.16637034 68.37805268 68.72312051 68.46630955 61.27718163 C68.51321163 57.4492966 68.57677372 53.62322681 68.67895508 49.79638672 C68.7770211 46.10038177 68.83061017 42.40611767 68.85389519 38.7089119 C68.87047844 37.30130218 68.90286737 35.89378405 68.95157051 34.4869194 C69.44902772 26.62179942 69.44902772 26.62179942 66.13287354 19.88552856 C63.8200361 18.32022709 61.54644952 17.13805275 59 16 C58.01209473 15.38141113 57.02418945 14.76282227 56.00634766 14.12548828 C53.21656314 12.45182777 50.42294362 10.78498803 47.625 9.125 C46.64144531 8.53203125 45.65789063 7.9390625 44.64453125 7.328125 C43.23107422 6.48894531 43.23107422 6.48894531 41.7890625 5.6328125 C40.94037598 5.12637207 40.09168945 4.61993164 39.21728516 4.09814453 C35.20034629 2.10869386 33.09023452 3.30998568 29.46484375 5.4140625 Z " fill="#F6F4F4" transform="translate(0,0)"/>
<path d="M0 0 C3.65659243 1.18752107 6.93703481 2.36296922 10.234375 4.34765625 C10.97300781 4.78787109 11.71164063 5.22808594 12.47265625 5.68164062 C13.22417969 6.13732422 13.97570313 6.59300781 14.75 7.0625 C16.26538288 7.9704563 17.78099685 8.87802706 19.296875 9.78515625 C20.29219238 10.38662476 20.29219238 10.38662476 21.30761719 11.00024414 C22.51275537 11.71216579 23.74806055 12.37403028 25 13 C25.33 35.77 25.66 58.54 26 82 C40.38810672 90.21213628 40.38810672 90.21213628 55 98 C55 107.57 55 117.14 55 127 C51.09417377 125.43766951 47.78049852 123.83681771 44.16015625 121.76171875 C43.59791855 121.44024368 43.03568085 121.11876862 42.45640564 120.78755188 C41.25952892 120.10233015 40.06354774 119.4155421 38.8684082 118.72729492 C36.54679235 117.39056896 34.22162585 116.06022251 31.89031982 114.74046326 C30.67145846 114.03250404 29.46701287 113.29925641 28.27667236 112.54432678 C24.32342935 110.08771883 20.68501787 108.55338101 16.20019531 107.27319336 C9.291702 104.92775003 3.91442622 102.38168491 0 96 C-4.2631622 81.82410419 -2.1495352 65.17251459 -1.51062012 50.60540771 C-1.28431792 44.90212381 -1.18483403 39.19672663 -1.07421875 33.49023438 C-0.83923458 22.32120314 -0.46453723 11.16167753 0 0 Z " fill="#F6F3F3" transform="translate(8,28)"/>
<path d="M0 0 C0 9.24 0 18.48 0 28 C-1.7428125 28.99257812 -3.485625 29.98515625 -5.28125 31.0078125 C-7.68766394 32.37992191 -10.09392773 33.7522918 -12.5 35.125 C-13.12526581 35.48159698 -13.75053162 35.83819397 -14.39474487 36.20559692 C-21.31436869 40.15355431 -28.22450957 44.1160917 -35.09765625 48.14453125 C-36.18949219 48.78438965 -37.28132813 49.42424805 -38.40625 50.08349609 C-40.47939312 51.30127525 -42.55105755 52.52157591 -44.62109375 53.74462891 C-45.55179688 54.2916748 -46.4825 54.8387207 -47.44140625 55.40234375 C-48.25295166 55.88179443 -49.06449707 56.36124512 -49.90063477 56.85522461 C-52 58 -52 58 -55 59 C-55 49.43 -55 39.86 -55 30 C-50.0190625 27.1846875 -50.0190625 27.1846875 -44.9375 24.3125 C-43.82431396 23.68327637 -42.71112793 23.05405273 -41.56420898 22.40576172 C-36.242314 19.39759976 -30.92020449 16.38981849 -25.59765625 13.3828125 C-24.57486572 12.80490967 -23.5520752 12.22700684 -22.49829102 11.6315918 C-20.54182437 10.52615071 -18.58528478 9.42083873 -16.62866211 8.31567383 C-15.73026611 7.8080249 -14.83187012 7.30037598 -13.90625 6.77734375 C-13.06449219 6.30280762 -12.22273438 5.82827148 -11.35546875 5.33935547 C-9.85196884 4.48444248 -8.35391942 3.61982233 -6.86328125 2.74267578 C-2.1979669 0 -2.1979669 0 0 0 Z " fill="#F6F2F2" transform="translate(123,96)"/>
<path d="M0 0 C0.56025389 7.83857862 0.9843615 15.6723685 1.24349213 23.52601814 C1.36803611 27.17613219 1.53596344 30.81244266 1.81054688 34.45458984 C3.23259775 53.80258006 3.23259775 53.80258006 0 62 C-6.24287431 69.10647193 -15.1758998 73.00073142 -24 76 C-24.33 76 -24.66 76 -25 76 C-25 55.21 -25 34.42 -25 13 C-2 0 -2 0 0 0 Z " fill="#F6F2F2" transform="translate(63,28)"/>
<path d="M0 0 C4.66541349 2.37243655 9.12858685 5.01727308 13.5859375 7.7578125 C14.51277344 8.32113281 15.43960938 8.88445312 16.39453125 9.46484375 C18.66996905 10.84887293 20.9419138 12.23830172 23.2109375 13.6328125 C20.33245742 15.88751078 17.39580376 17.73145549 14.1953125 19.49609375 C13.20241211 20.0470874 12.20951172 20.59808105 11.18652344 21.16577148 C10.12208008 21.75302002 9.05763672 22.34026855 7.9609375 22.9453125 C1.04487646 26.77025762 -5.83124925 30.62563913 -12.6015625 34.703125 C-14.22336426 35.67511841 -14.22336426 35.67511841 -15.87792969 36.66674805 C-17.95355421 37.91664335 -20.02221186 39.17819656 -22.08300781 40.45239258 C-23.02241211 41.01595459 -23.96181641 41.5795166 -24.9296875 42.16015625 C-26.15993652 42.91413696 -26.15993652 42.91413696 -27.41503906 43.68334961 C-30.40576091 44.87945381 -31.74985692 44.6298443 -34.7890625 43.6328125 C-37.28442383 42.41772461 -37.28442383 42.41772461 -39.87109375 40.91015625 C-40.80244141 40.37197266 -41.73378906 39.83378906 -42.69335938 39.27929688 C-43.65306641 38.71533203 -44.61277344 38.15136719 -45.6015625 37.5703125 C-46.58060547 37.00248047 -47.55964844 36.43464844 -48.56835938 35.84960938 C-50.97899598 34.45026423 -53.3856476 33.04451321 -55.7890625 31.6328125 C-53.44016382 29.16872125 -51.312798 27.14780444 -48.3046875 25.546875 C-47.62833252 25.18029785 -46.95197754 24.8137207 -46.25512695 24.43603516 C-45.52382568 24.04722168 -44.79252441 23.6584082 -44.0390625 23.2578125 C-36.31068624 19.06113855 -28.68884186 14.70444621 -21.1015625 10.2578125 C-19.57934082 9.36570068 -19.57934082 9.36570068 -18.02636719 8.45556641 C-17.05731445 7.88757324 -16.08826172 7.31958008 -15.08984375 6.734375 C-14.17025879 6.20231445 -13.25067383 5.67025391 -12.30322266 5.12207031 C-10.75845319 4.20702917 -9.23167267 3.2596256 -7.73974609 2.26074219 C-4.9491548 0.43397878 -3.36124807 -0.44251725 0 0 Z " fill="#F6F3F3" transform="translate(96.7890625,77.3671875)"/>
<path d="M0 0 C2.40356445 1.18334961 2.40356445 1.18334961 4.86328125 2.65234375 C5.74951172 3.18150391 6.63574219 3.71066406 7.54882812 4.25585938 C8.46083984 4.81080078 9.37285156 5.36574219 10.3125 5.9375 C11.24384766 6.48857422 12.17519531 7.03964844 13.13476562 7.60742188 C14.01455078 8.13787109 14.89433594 8.66832031 15.80078125 9.21484375 C16.60684814 9.70073975 17.41291504 10.18663574 18.2434082 10.68725586 C19.11292114 11.33706421 19.11292114 11.33706421 20 12 C20 12.66 20 13.32 20 14 C16.61990162 16.50221703 12.92916105 18.5465638 9.3125 20.6875 C8.30509766 21.30689453 7.29769531 21.92628906 6.25976562 22.56445312 C4.79506836 23.43553711 4.79506836 23.43553711 3.30078125 24.32421875 C2.40528564 24.86135498 1.50979004 25.39849121 0.5871582 25.9519043 C-2.54299222 27.21997411 -3.82727759 27.06858188 -7 26 C-9.49536133 24.78491211 -9.49536133 24.78491211 -12.08203125 23.27734375 C-13.01337891 22.73916016 -13.94472656 22.20097656 -14.90429688 21.64648438 C-15.86400391 21.08251953 -16.82371094 20.51855469 -17.8125 19.9375 C-18.79154297 19.36966797 -19.77058594 18.80183594 -20.77929688 18.21679688 C-23.18993348 16.81745173 -25.5965851 15.41170071 -28 14 C-28 13.34 -28 12.68 -28 12 C-24.28438346 9.78884432 -20.55059892 7.61039613 -16.8125 5.4375 C-15.75740234 4.80908203 -14.70230469 4.18066406 -13.61523438 3.53320312 C-12.08286133 2.64858398 -12.08286133 2.64858398 -10.51953125 1.74609375 C-9.58214111 1.19622803 -8.64475098 0.6463623 -7.67895508 0.07983398 C-4.49741999 -1.20258009 -3.21550026 -1.09503236 0 0 Z " fill="#F6F1F1" transform="translate(39,10)"/>
<path d="M0 0 C2.17236328 0.99975586 2.17236328 0.99975586 4.3203125 2.21484375 C5.10277344 2.65376953 5.88523438 3.09269531 6.69140625 3.54492188 C7.49449219 4.00447266 8.29757813 4.46402344 9.125 4.9375 C10.34123047 5.62102539 10.34123047 5.62102539 11.58203125 6.31835938 C14.79403569 8.13141643 17.92932895 9.95288597 21 12 C21 12.66 21 13.32 21 14 C17.2879118 16.23804621 13.55307666 18.43495631 9.8125 20.625 C8.75740234 21.26179688 7.70230469 21.89859375 6.61523438 22.5546875 C5.59365234 23.14765625 4.57207031 23.740625 3.51953125 24.3515625 C2.11344604 25.18421631 2.11344604 25.18421631 0.67895508 26.03369141 C-2 27 -2 27 -4.54101562 26.328125 C-5.75821289 25.67070313 -5.75821289 25.67070313 -7 25 C-7.79317627 24.59185059 -8.58635254 24.18370117 -9.40356445 23.76318359 C-10.215271 23.31281738 -11.02697754 22.86245117 -11.86328125 22.3984375 C-12.74951172 21.90859375 -13.63574219 21.41875 -14.54882812 20.9140625 C-15.46083984 20.40617187 -16.37285156 19.89828125 -17.3125 19.375 C-18.24384766 18.859375 -19.17519531 18.34375 -20.13476562 17.8125 C-22.42463469 16.54426483 -24.71297715 15.27335838 -27 14 C-27 13.34 -27 12.68 -27 12 C-23.61990162 9.49778297 -19.92916105 7.4534362 -16.3125 5.3125 C-15.30509766 4.69310547 -14.29769531 4.07371094 -13.25976562 3.43554688 C-12.28330078 2.85482422 -11.30683594 2.27410156 -10.30078125 1.67578125 C-9.40528564 1.13864502 -8.50979004 0.60150879 -7.5871582 0.0480957 C-4.47845127 -1.21128703 -3.15242133 -1.04144463 0 0 Z " fill="#F6F1F1" transform="translate(128,27)"/>
<path d="M0 0 C3.52612746 1.41045098 6.58110119 2.78048195 9.86328125 4.6015625 C10.66290283 5.04322754 11.46252441 5.48489258 12.28637695 5.93994141 C13.78430786 6.77404541 13.78430786 6.77404541 15.3125 7.625 C18.509375 9.39875 21.70625 11.1725 25 13 C25 22.57 25 32.14 25 42 C12.35339506 35.10185185 12.35339506 35.10185185 6.3125 31.625 C4.229375 30.42875 2.14625 29.2325 0 28 C0 18.76 0 9.52 0 0 Z " fill="#F6EFEF" transform="translate(98,45)"/>
<path d="M0 0 C2.70213326 24.15535959 2.70213326 24.15535959 -1.58789062 30.25927734 C-5.56091305 33.64210441 -10.10319002 35.57559659 -15.00146484 37.26611328 C-17.5381206 38.19760451 -19.7095198 39.58085125 -22 41 C-22.66 41 -23.32 41 -24 41 C-25.35454696 31.82791736 -26.76389567 21.9983352 -24 13 C-19.03453142 6.92539439 -8.14189579 0 0 0 Z " fill="#F6F3F3" transform="translate(152,45)"/>
</svg>
