<?xml version="1.0" encoding="UTF-8"?>
<svg version="1.1" xmlns="http://www.w3.org/2000/svg" width="149" height="300">
<path d="M0 0 C2.0442241 1.63344621 2.88967343 2.50904677 3.46875 5.0859375 C3.48421875 6.21902344 3.48421875 6.21902344 3.5 7.375 C3.5309375 8.12523438 3.561875 8.87546875 3.59375 9.6484375 C2.73506305 13.04928975 0.67095387 14.88131747 -2 17 C-4.98553063 18.75676871 -8.091902 20.20020259 -11.23828125 21.64453125 C-12.55943184 22.26650642 -12.55943184 22.26650642 -13.90727234 22.90104675 C-16.7043763 24.21505028 -19.50820145 25.51393292 -22.3125 26.8125 C-24.21726117 27.70408689 -26.12156353 28.59665468 -28.02539062 29.49023438 C-32.67760625 31.67343099 -37.33862256 33.83601658 -42 36 C-42.33 48.21 -42.66 60.42 -43 73 C-38.38 73 -33.76 73 -29 73 C-25 77 -25 77 -24.7578125 80.13671875 C-25.13306816 83.76552083 -25.51574171 87.38394011 -26 91 C-26.17402344 92.37478516 -26.17402344 92.37478516 -26.3515625 93.77734375 C-27.2938584 99.32949903 -27.2938584 99.32949903 -30.12077332 102.01373291 C-33.46927009 104.32373128 -35.96528764 104.92427311 -39.95825195 105.64746094 C-40.9788269 105.83853172 -40.9788269 105.83853172 -42.02001953 106.03346252 C-44.25704575 106.44835224 -46.49725466 106.84171867 -48.73828125 107.234375 C-50.30400822 107.51901977 -51.86953207 107.80478391 -53.43486023 108.09161377 C-56.71239318 108.68896821 -59.99150537 109.2763181 -63.2722168 109.85595703 C-67.46105185 110.59633997 -71.64611639 111.35586717 -75.83025837 112.12228012 C-79.06271662 112.71313429 -82.29648921 113.29650121 -85.53075218 113.877388 C-87.07349251 114.15483771 -88.61594019 114.4339201 -90.15807533 114.71471405 C-92.32203762 115.10699085 -94.48746602 115.48983618 -96.65356445 115.87011719 C-97.88202591 116.08899597 -99.11048737 116.30787476 -100.37617493 116.53338623 C-110.53786737 117.84183394 -110.53786737 117.84183394 -114.0625 115.8125 C-115 114 -115 114 -114.875 111.4375 C-114 109 -114 109 -111 107 C-108.26542253 106.38605779 -105.57071017 105.84714777 -102.8125 105.375 C-101.68811523 105.17390625 -101.68811523 105.17390625 -100.54101562 104.96875 C-98.69512072 104.63954581 -96.84769691 104.31893502 -95 104 C-96.55460937 103.92652344 -96.55460937 103.92652344 -98.140625 103.8515625 C-99.51044208 103.77650403 -100.88023248 103.70095753 -102.25 103.625 C-102.93191406 103.5940625 -103.61382812 103.563125 -104.31640625 103.53125 C-111.26806807 103.12629883 -111.26806807 103.12629883 -114 101 C-117.23235582 94.14840407 -118.73019221 84.49732565 -118 77 C-115.69064277 73.85369451 -114.43517698 73.07679594 -110.546875 72.390625 C-109.29390625 72.34421875 -108.0409375 72.2978125 -106.75 72.25 C-105.48671875 72.19328125 -104.2234375 72.1365625 -102.921875 72.078125 C-101.95765625 72.05234375 -100.9934375 72.0265625 -100 72 C-100.01571045 71.02651611 -100.0314209 70.05303223 -100.04760742 69.05004883 C-100.10206239 65.42529633 -100.13640626 61.80057974 -100.16479492 58.17553711 C-100.17984622 56.60906893 -100.20029207 55.04264264 -100.22631836 53.47631836 C-100.26286433 51.21978394 -100.27976261 48.96380847 -100.29296875 46.70703125 C-100.31619453 45.66298882 -100.31619453 45.66298882 -100.33988953 44.59785461 C-100.3413979 40.20233954 -99.66904811 37.50490375 -97 34 C-94.14925356 31.68858396 -92.6860549 31 -89 31 C-85.104713 32.298429 -83.55002445 33.7782592 -81 37 C-80.56142733 39.99191443 -80.41098224 42.39014885 -80.51171875 45.36328125 C-80.51879349 46.15526413 -80.52586823 46.94724701 -80.53315735 47.76322937 C-80.56103756 50.28063389 -80.623758 52.79577356 -80.6875 55.3125 C-80.71259139 57.0240563 -80.73540309 58.73564765 -80.75585938 60.44726562 C-80.80658415 64.63307426 -80.90442963 68.81401775 -81 73 C-74.73 73 -68.46 73 -62 73 C-62.02618408 71.63794434 -62.05236816 70.27588867 -62.0793457 68.87255859 C-62.17001403 63.80729675 -62.22731039 58.7421063 -62.2746582 53.67626953 C-62.29976434 51.48604256 -62.33385637 49.29589906 -62.37719727 47.10595703 C-62.43801907 43.95324078 -62.46624923 40.80163447 -62.48828125 37.6484375 C-62.51408768 36.67321136 -62.5398941 35.69798523 -62.56648254 34.69320679 C-62.5683542 30.13119765 -62.35588296 27.60184051 -59.99316406 23.60620117 C-56.41708965 20.49244959 -52.91728329 18.59450624 -48.62109375 16.65234375 C-47.81317886 16.27316299 -47.00526398 15.89398224 -46.17286682 15.50331116 C-43.60070434 14.30060632 -41.01940064 13.11912965 -38.4375 11.9375 C-36.73050477 11.14129117 -35.02411821 10.34377606 -33.31835938 9.54492188 C-28.56220666 7.32584635 -23.78724712 5.15107756 -19 3 C-18.35606293 2.70885315 -17.71212585 2.4177063 -17.04867554 2.11773682 C-15.38406736 1.37004769 -13.71185234 0.63935689 -12.0390625 -0.08984375 C-11.14783691 -0.47906006 -10.25661133 -0.86827637 -9.33837891 -1.26928711 C-5.49950326 -2.46888565 -3.54338662 -1.80938891 0 0 Z " fill="#E64537" transform="translate(146,118)"/>
<path d="M0 0 C4.63235294 2.26470588 4.63235294 2.26470588 6 5 C6.23828125 7.0234375 6.23828125 7.0234375 6.3125 9.375 C6.36857422 10.53128906 6.36857422 10.53128906 6.42578125 11.7109375 C5.83642438 14.87940655 4.39656682 15.88368716 2 18 C-0.40893555 19.40942383 -0.40893555 19.40942383 -3.13671875 20.70703125 C-4.17094971 21.20291748 -5.20518066 21.69880371 -6.27075195 22.2097168 C-7.39827881 22.73863525 -8.52580566 23.26755371 -9.6875 23.8125 C-10.89237128 24.38475151 -12.09703755 24.95743481 -13.30151367 25.53051758 C-23.10364658 30.17671084 -32.98299428 34.65368847 -42.86981201 39.11605835 C-54.41163674 44.32634942 -65.87663936 49.68629043 -77.3125 55.125 C-78.10992615 55.50418579 -78.90735229 55.88337158 -79.72894287 56.27404785 C-80.91668304 56.8388385 -80.91668304 56.8388385 -82.12841797 57.41503906 C-83.70798134 58.16607131 -85.28757093 58.9170484 -86.8671875 59.66796875 C-87.6377951 60.03431427 -88.40840271 60.40065979 -89.20236206 60.77810669 C-96.76324478 64.36895776 -104.34535108 67.91331236 -111.9375 71.4375 C-113.63289917 72.22568115 -113.63289917 72.22568115 -115.36254883 73.02978516 C-118.23780512 74.3619451 -121.11657569 75.68562633 -124 77 C-124.71607422 77.32693848 -125.43214844 77.65387695 -126.16992188 77.99072266 C-130.35813468 79.85251757 -133.38936415 80.68305716 -138 80 C-141.07858499 77.96944394 -142.645391 76.4855968 -143.515625 72.83984375 C-143.83447441 68.49914387 -143.83447441 68.49914387 -143 66 C-138.96814986 62.25249303 -134.90663762 59.71060792 -129.890625 57.43359375 C-129.21535767 57.1182518 -128.54009033 56.80290985 -127.84436035 56.47801208 C-125.65012806 55.45588151 -123.45023669 54.44663156 -121.25 53.4375 C-119.70959435 52.72295772 -118.16955911 52.00761642 -116.62988281 51.29150391 C-112.79330079 49.50964145 -108.9520758 47.73807998 -105.10888672 45.97052002 C-102.08101867 44.57708028 -99.05618733 43.17713439 -96.03125 41.77734375 C-91.84832128 39.84335662 -87.66312099 37.91439678 -83.4765625 35.98828125 C-76.34774999 32.70455417 -69.23576434 29.38505707 -62.125 26.0625 C-52.06771611 21.36372086 -42.00633937 16.67397233 -31.9375 12 C-30.82713379 11.48445557 -29.71676758 10.96891113 -28.57275391 10.43774414 C-26.44700664 9.45128311 -24.31976577 8.46803319 -22.19091797 7.48828125 C-19.95538575 6.44560303 -17.7312359 5.37833226 -15.51611328 4.29296875 C-13.8085083 3.46732422 -13.8085083 3.46732422 -12.06640625 2.625 C-11.04619385 2.12226562 -10.02598145 1.61953125 -8.97485352 1.1015625 C-5.73000511 -0.09997677 -3.43218072 -0.30681389 0 0 Z " fill="#E64537" transform="translate(143,4)"/>
<path d="M0 0 C2.4375 1.5 2.4375 1.5 4 4 C4.55224739 7.09714 4.73465409 9.93173881 4 13 C1.22931445 16.20052354 -1.50631529 17.9765788 -5.3125 19.77734375 C-6.90372681 20.53724609 -6.90372681 20.53724609 -8.52709961 21.3125 C-9.67315674 21.84875 -10.81921387 22.385 -12 22.9375 C-13.21066128 23.51109981 -14.42102379 24.0853306 -15.63110352 24.66015625 C-19.4146232 26.45323621 -23.20650624 28.22814053 -27 30 C-28.1741748 30.54930176 -29.34834961 31.09860352 -30.55810547 31.66455078 C-37.54419225 34.92800216 -44.54060778 38.16876888 -51.54101562 41.40136719 C-55.97900749 43.45246619 -60.41298804 45.5121356 -64.84667969 47.57250977 C-70.16902318 50.04582037 -75.49274759 52.5161552 -80.81640625 54.9866333 C-83.23833309 56.11060611 -85.66017892 57.23475337 -88.08203125 58.35888672 C-92.69517701 60.50000024 -97.30873569 62.64022218 -101.92251587 64.77996826 C-103.74845768 65.62692731 -105.57428595 66.47413119 -107.3999939 67.32159424 C-109.97858538 68.51846591 -112.55760462 69.71441132 -115.13671875 70.91015625 C-115.89819214 71.26383774 -116.65966553 71.61751923 -117.44421387 71.98191833 C-119.62706057 72.99328813 -121.81311671 73.99739268 -124 75 C-124.79854401 75.37075653 -125.59708801 75.74151306 -126.41983032 76.12350464 C-127.60770645 76.66649704 -127.60770645 76.66649704 -128.81958008 77.22045898 C-129.53140945 77.54827866 -130.24323883 77.87609833 -130.97663879 78.21385193 C-134.20286657 79.46735661 -136.60691752 79.58726428 -140 79 C-143.07858499 76.96944394 -144.645391 75.4855968 -145.515625 71.83984375 C-145.83447441 67.49914387 -145.83447441 67.49914387 -145 65 C-140.98045458 61.27575588 -137.14064851 58.85989351 -132.13671875 56.5390625 C-131.48095352 56.23210449 -130.82518829 55.92514648 -130.14955139 55.60888672 C-127.99952604 54.60540631 -125.84370502 53.61512318 -123.6875 52.625 C-122.159522 51.91521501 -120.63185802 51.20475368 -119.10449219 50.49365234 C-108.34577153 45.49593084 -97.54254674 40.59491452 -86.73074341 35.71328735 C-76.11923511 30.92109081 -65.58206705 25.98548873 -55.07095337 20.97714233 C-48.05448987 17.63624854 -41.02826923 14.3159695 -34 11 C-33.29848816 10.66838867 -32.59697632 10.33677734 -31.87420654 9.99511719 C-27.44959867 7.90587515 -23.0109372 5.85051929 -18.5625 3.8125 C-17.47984863 3.30114502 -16.39719727 2.78979004 -15.28173828 2.26293945 C-9.68506237 -0.26644036 -5.99023109 -1.82901723 0 0 Z " fill="#E64537" transform="translate(145,80)"/>
<path d="M0 0 C2.08474382 1.61181582 2.88674069 2.49599607 3.46875 5.0859375 C3.48421875 6.21902344 3.48421875 6.21902344 3.5 7.375 C3.54640625 8.50035156 3.54640625 8.50035156 3.59375 9.6484375 C2.70285041 13.17686879 0.70613252 14.6054444 -2 17 C-4.45797052 18.37804601 -6.82436413 19.59272257 -9.37890625 20.75 C-10.09469345 21.08489441 -10.81048065 21.41978882 -11.54795837 21.76483154 C-13.88147225 22.85360063 -16.2217762 23.9268312 -18.5625 25 C-20.19576992 25.75845586 -21.82857804 26.51790693 -23.4609375 27.27832031 C-27.54705705 29.17907328 -31.63861303 31.06778648 -35.73175049 32.95336914 C-39.03207865 34.47622863 -42.32691376 36.01077225 -45.62109375 37.546875 C-51.28636786 40.18641822 -56.95658457 42.81509426 -62.62890625 45.43945312 C-68.42170591 48.12105621 -74.21059788 50.81107194 -80 53.5 C-82.31118684 54.57294052 -84.62238477 55.64585716 -86.93359375 56.71875 C-91.18448171 58.69231286 -95.43498438 60.66670058 -99.68496704 62.64221191 C-102.20499082 63.8135455 -104.7251706 64.98454325 -107.24536133 66.15551758 C-108.99770966 66.96988986 -110.74983569 67.78474045 -112.50195312 68.59960938 C-114.64542036 69.59547369 -116.78990825 70.58914497 -118.93554688 71.58032227 C-120.99281992 72.53340088 -123.04618475 73.4949576 -125.09570312 74.46459961 C-126.06572266 74.91843018 -127.03574219 75.37226074 -128.03515625 75.83984375 C-129.31531616 76.44493774 -129.31531616 76.44493774 -130.62133789 77.06225586 C-134.42833778 78.56309611 -136.9445771 78.62928976 -141 78 C-144 76.625 -144 76.625 -146 74 C-146.70023586 70.54473779 -146.93013353 67.4141372 -146 64 C-142.02705726 60.276116 -137.55348145 58.14562923 -132.67578125 55.875 C-131.86614929 55.49174561 -131.05651733 55.10849121 -130.22235107 54.71362305 C-127.58879036 53.46914427 -124.95079897 52.2343977 -122.3125 51 C-120.47496218 50.13457488 -118.63764266 49.2686861 -116.80053711 48.40234375 C-105.23026119 42.95308111 -93.6362284 37.55526121 -82.01171875 32.22265625 C-73.69313124 28.40577559 -65.3929868 24.5491774 -57.09060669 20.69720459 C-44.60933431 14.9074427 -32.1270073 9.11988128 -19.625 3.375 C-18.66384277 2.93212646 -17.70268555 2.48925293 -16.71240234 2.03295898 C-15.42003662 1.44043335 -15.42003662 1.44043335 -14.1015625 0.8359375 C-13.37275879 0.50126465 -12.64395508 0.1665918 -11.89306641 -0.17822266 C-7.16040456 -2.2326642 -4.84779125 -1.73135402 0 0 Z " fill="#E64537" transform="translate(146,43)"/>
<path d="M0 0 C2.75329021 1.79562405 4.52627461 3.05254922 6 6 C6.55106056 10.04111078 6.28566482 11.5935411 3.90820312 14.97631836 C1.11910219 18.15529031 -2.07696881 19.92934483 -5.90625 21.62890625 C-6.57577194 21.94077881 -7.24529388 22.25265137 -7.93510437 22.57397461 C-10.11672638 23.58545063 -12.30760716 24.57461385 -14.5 25.5625 C-16.02039523 26.2586869 -17.54032861 26.95588326 -19.05981445 27.65405273 C-22.16972762 29.07991383 -25.28382756 30.49606789 -28.40087891 31.90625 C-32.08451086 33.57650128 -35.74996754 35.28206832 -39.40805054 37.00746155 C-42.04063052 38.24727546 -44.67986144 39.47241541 -47.32080078 40.69430542 C-49.15082323 41.54544177 -50.97394105 42.41137367 -52.796875 43.27758789 C-63.03741583 47.95213372 -63.03741583 47.95213372 -69 46 C-71.4375 44.5 -71.4375 44.5 -73 42 C-73.6210676 38.86536636 -73.84006036 36.09413536 -73 33 C-68.75486892 27.19925797 -62.14840923 24.97774034 -55.75 22.125 C-54.52474675 21.57095151 -53.29990161 21.01599973 -52.07543945 20.46020508 C-50.12907853 19.57761341 -48.18207874 18.69660203 -46.23286438 17.82032776 C-41.90993761 15.87576502 -37.60789335 13.89100677 -33.31716919 11.87640381 C-30.33845861 10.47843149 -27.35477269 9.0912773 -24.3704834 7.70526123 C-22.92345342 7.03061981 -21.47835011 6.35182928 -20.03527832 5.66876221 C-18.00179437 4.707926 -15.96108033 3.76437273 -13.91796875 2.82421875 C-12.75031982 2.27854248 -11.5826709 1.73286621 -10.37963867 1.1706543 C-6.66087449 -0.11746781 -3.908178 -0.35347253 0 0 Z " fill="#E64537" transform="translate(73,0)"/>
<path d="M0 0 C1 1 1 1 1.1875 3.9375 C1 7 1 7 -1 9 C-3.74544414 9.66823323 -6.44619099 10.23121884 -9.22265625 10.734375 C-10.06346237 10.893116 -10.90426849 11.05185699 -11.77055359 11.21540833 C-14.53312523 11.73483721 -17.29765561 12.242819 -20.0625 12.75 C-21.96460884 13.1035982 -23.86662656 13.45768692 -25.76855469 13.81225586 C-29.63610358 14.53194975 -33.50452618 15.24669627 -37.37353516 15.95849609 C-41.77124356 16.76937907 -46.16489683 17.59949227 -50.55662537 18.44210815 C-53.58020442 19.02141272 -56.60531409 19.59240044 -59.63082886 20.16149902 C-61.03421723 20.42705573 -62.43700418 20.69581235 -63.83914185 20.96789551 C-65.78154074 21.34373244 -67.72666499 21.70540084 -69.671875 22.06640625 C-70.7556543 22.27209229 -71.83943359 22.47777832 -72.95605469 22.68969727 C-76.2569683 23.0261956 -78.79931141 22.87460677 -82 22 C-84 19 -84 19 -83.625 16.3125 C-83.41875 15.549375 -83.2125 14.78625 -83 14 C-74.75614002 11.2470026 -66.36378342 9.6017249 -57.83203125 8.046875 C-56.38332461 7.77989835 -54.93465068 7.51274416 -53.48600769 7.24542236 C-50.46868625 6.69019719 -47.45056742 6.13957037 -44.43188477 5.59179688 C-40.57666233 4.89147824 -36.72446239 4.17581333 -32.87279224 3.45624924 C-29.88949722 2.90134652 -26.90442505 2.35652649 -23.91876793 1.81449127 C-22.49764901 1.55488542 -21.07716906 1.29175452 -19.65738869 1.02492523 C-17.67172752 0.65290901 -15.68318541 0.29637233 -13.69458008 -0.05957031 C-12.5678035 -0.26592102 -11.44102692 -0.47227173 -10.28010559 -0.68487549 C-6.65333896 -1.03330423 -3.56698576 -0.70484197 0 0 Z " fill="#E74537" transform="translate(115,235)"/>
<path d="M0 0 C1 1 1 1 1.3125 3.875 C1 7 1 7 -0.58401489 8.59944153 C-3.68369262 10.39633998 -6.43974512 10.90188808 -9.96826172 11.53393555 C-10.66146515 11.66117004 -11.35466858 11.78840454 -12.06887817 11.91949463 C-14.35401509 12.33601492 -16.64162207 12.73662543 -18.9296875 13.13671875 C-20.52400083 13.42308115 -22.1181661 13.71026898 -23.71218872 13.99824524 C-27.05157918 14.59916029 -30.39217017 15.1926784 -33.73388672 15.78051758 C-38.00849127 16.53268377 -42.28039117 17.29904335 -46.55155754 18.07046795 C-49.84340341 18.6641011 -53.13621753 19.25220265 -56.42938614 19.83844948 C-58.00440328 20.11911128 -59.57920272 20.40099777 -61.15377426 20.68414879 C-63.35926818 21.0794767 -65.56587724 21.46784057 -67.77294922 21.85424805 C-69.026633 22.07614304 -70.28031677 22.29803802 -71.57199097 22.5266571 C-74.79465408 22.97164563 -77.75457485 23.22003857 -81 23 C-82.9375 21.25 -82.9375 21.25 -84 19 C-83.73495121 15.99611368 -83.16695725 15.16695725 -81 13 C-78.63401794 12.36207581 -78.63401794 12.36207581 -75.62670898 11.81079102 C-74.50050644 11.60039688 -73.37430389 11.39000275 -72.213974 11.17323303 C-70.98707352 10.95235519 -69.76017303 10.73147736 -68.49609375 10.50390625 C-67.22967545 10.26969467 -65.96325714 10.03548309 -64.65846252 9.79417419 C-61.27470383 9.1685648 -57.88926777 8.55253097 -54.50341797 7.93835449 C-51.12422934 7.32357537 -47.74677374 6.69942965 -44.36914062 6.07617188 C-39.20855496 5.12487177 -34.04618368 4.18386698 -28.88232422 3.25048828 C-24.74458345 2.50254878 -20.61059298 1.74015166 -16.48095703 0.94873047 C-15.29567162 0.72611794 -15.29567162 0.72611794 -14.08644104 0.49900818 C-12.10222011 0.12595378 -10.11950333 -0.25507852 -8.13696289 -0.63696289 C-5.08004564 -0.99073641 -2.93573456 -0.86891284 0 0 Z " fill="#E74537" transform="translate(115,258)"/>
<path d="M0 0 C2 2 2 2 2.3125 5 C2.209375 5.99 2.10625 6.98 2 8 C-1.00399293 10.00266196 -2.51812125 10.44937946 -5.98706055 11.05322266 C-7.00209152 11.23325836 -8.0171225 11.41329407 -9.06291199 11.5987854 C-10.15976822 11.78532684 -11.25662445 11.97186829 -12.38671875 12.1640625 C-13.51769485 12.36099701 -14.64867096 12.55793152 -15.81391907 12.76083374 C-18.20989247 13.17610815 -20.60649527 13.58776483 -23.00366211 13.99609375 C-26.65731261 14.6198464 -30.30817643 15.25828232 -33.95898438 15.8984375 C-36.28890922 16.30036875 -38.61898292 16.70143821 -40.94921875 17.1015625 C-42.57932137 17.38744736 -42.57932137 17.38744736 -44.24235535 17.67910767 C-58.98002037 20.16301858 -58.98002037 20.16301858 -63.0625 17.8125 C-64 16 -64 16 -63.875 13.4375 C-63 11 -63 11 -60 9 C-57.71894836 8.41781616 -57.71894836 8.41781616 -55.01293945 7.94677734 C-53.99790848 7.76674164 -52.9828775 7.58670593 -51.93708801 7.4012146 C-50.29180367 7.12140244 -50.29180367 7.12140244 -48.61328125 6.8359375 C-47.48230515 6.63900299 -46.35132904 6.44206848 -45.18608093 6.23916626 C-42.79010753 5.82389185 -40.39350473 5.41223517 -37.99633789 5.00390625 C-34.34268739 4.3801536 -30.69182357 3.74171768 -27.04101562 3.1015625 C-24.71109078 2.69963125 -22.38101708 2.29856179 -20.05078125 1.8984375 C-18.42067863 1.61255264 -18.42067863 1.61255264 -16.75764465 1.32089233 C-11.10428334 0.36806529 -5.7347386 -0.41439933 0 0 Z " fill="#E74537" transform="translate(105,281)"/>
</svg>
