<?xml version="1.0" encoding="UTF-8"?>
<svg version="1.1" xmlns="http://www.w3.org/2000/svg" width="390" height="388">
<path d="M0 0 C128.7 0 257.4 0 390 0 C390 128.04 390 256.08 390 388 C261.3 388 132.6 388 0 388 C0 259.96 0 131.92 0 0 Z " fill="#6074C2" transform="translate(0,0)"/>
<path d="M0 0 C128.7 0 257.4 0 390 0 C390 128.04 390 256.08 390 388 C261.3 388 132.6 388 0 388 C0 259.96 0 131.92 0 0 Z M155 9 C154.3409668 9.21930176 153.68193359 9.43860352 153.00292969 9.66455078 C127.78090223 18.24106801 106.77511193 35.85484883 88.40625 54.62890625 C87 56 87 56 84.5 57.9375 C81.66624841 60.27534506 79.46458624 62.87121657 77.0859375 65.66015625 C74.66011038 68.38126195 72.09516806 70.94265982 69.5 73.5 C57.58388578 85.30822184 47.13871506 98.65142973 37 112 C36.18273438 113.03511719 35.36546875 114.07023437 34.5234375 115.13671875 C22.49961418 130.64848365 11.48057569 149.61385054 8.46484375 169.23046875 C7.78051123 173.30771042 6.72370419 177.27467094 5.68359375 181.2734375 C1.7327346 197.03172143 3.30236464 213.61012969 8 229 C8.36611481 230.29550811 8.732002 231.59108057 9.09765625 232.88671875 C19.33265001 266.64485072 49.52079558 297.95570294 76.00390625 320.28125 C78.09157178 322.0788485 80.09995881 323.9510626 82.10986328 325.8347168 C87.95266398 331.29245377 94.0378406 336.3036354 100.37109375 341.1796875 C102.83757957 343.08067333 105.26084194 345.02274532 107.66015625 347.0078125 C125.77297984 361.9556132 147.57673013 375.83818721 171.171875 379.49609375 C174 380 174 380 176.703125 380.78515625 C203.24325128 388.41366848 230.70758973 381.0154172 254.1875 368.1875 C261.61977965 364.0135493 268.36857055 359.3701201 275 354 C275.87398438 353.31679688 276.74796875 352.63359375 277.6484375 351.9296875 C291.83906468 340.65209229 305.52682482 327.74815133 317.26953125 313.94140625 C319.18959989 311.78728861 321.23267882 309.81246766 323.3125 307.8125 C327.35052776 303.82922516 330.80429064 299.52944281 334.20068359 295.00463867 C337.00221437 291.27483788 339.9135352 287.68007254 342.9375 284.125 C353.18859399 271.86860594 361.59406206 259.16517909 369 245 C369.34554932 244.37665771 369.69109863 243.75331543 370.04711914 243.11108398 C373.1539233 237.32102891 374.85477264 231.26091318 376.5625 224.9375 C376.86551025 223.82205811 377.16852051 222.70661621 377.48071289 221.55737305 C378.33457234 218.37510011 379.17025627 215.18863204 380 212 C380.20077148 211.25202148 380.40154297 210.50404297 380.60839844 209.73339844 C385.15587479 192.49488442 384.06366485 174.92609649 379 158 C378.73445313 156.99453125 378.46890625 155.9890625 378.1953125 154.953125 C373.43725675 138.54916136 363.67294756 124.10164855 353 111 C352.5344873 110.42556152 352.06897461 109.85112305 351.58935547 109.25927734 C343.12158358 98.87836054 334.28547362 88.3444935 323.9921875 79.73828125 C321.54273892 77.6010173 319.28284367 75.31406797 317 73 C312.82870295 68.78398767 308.52115002 64.83439305 304 61 C303.45085937 60.52304687 302.90171875 60.04609375 302.3359375 59.5546875 C296.9889868 54.91728476 291.51635577 50.4337209 286 46 C285.0104834 45.20166748 285.0104834 45.20166748 284.00097656 44.38720703 C276.11887428 38.05395038 268.1998837 31.8751594 259.625 26.5 C259.03243408 26.1275415 258.43986816 25.75508301 257.8293457 25.37133789 C247.77838007 19.25139223 237.40999826 14.80997241 226.1875 11.3125 C224.94846924 10.92457275 223.70943848 10.53664551 222.43286133 10.13696289 C199.45518566 3.05470947 178.03665724 1.09402203 155 9 Z " fill="#F6F6F6" transform="translate(0,0)"/>
<path d="M0 0 C37.29 0 74.58 0 113 0 C111.90153814 4.39384743 109.99011817 6.79629838 107.1875 10.1875 C102.94055832 15.45200359 98.92649238 20.82357194 95.0625 26.375 C91.09978838 32.05898032 87.05485941 37.6610727 82.875 43.1875 C79.22361917 48.01670776 75.62518443 52.87249795 72.125 57.8125 C68.07740117 63.52118487 63.960645 69.17644536 59.8125 74.8125 C59.24225098 75.58891846 58.67200195 76.36533691 58.08447266 77.1652832 C54.61152235 81.87498915 51.05495676 86.49944113 47.3894043 91.0612793 C45.81869735 93.05126349 45.81869735 93.05126349 45 96 C63.15 96 81.3 96 100 96 C100 105.24 100 114.48 100 124 C63.7 124 27.4 124 -10 124 C-8.32023342 119.80058354 -7.28061499 117.85023534 -4.5 114.5625 C-1.28403321 110.64213833 1.75973156 106.63834472 4.6875 102.5 C5.10080566 101.91661865 5.51411133 101.3332373 5.93994141 100.73217773 C6.8217656 99.48671299 7.7032647 98.24101802 8.58447266 96.99511719 C15.74080831 86.90860891 23.02192816 76.9185926 30.47338867 67.04833984 C34.84219875 61.24674411 39.09198696 55.36302827 43.32910156 49.46484375 C47.27447215 43.98022633 51.29883247 38.56357778 55.390625 33.1875 C57.01843343 31.10465043 57.01843343 31.10465043 58 29 C58.66 29 59.32 29 60 29 C60 28.34 60 27.68 60 27 C40.2 27 20.4 27 0 27 C0 18.09 0 9.18 0 0 Z " fill="#FAFAFC" transform="translate(88,138)"/>
<path d="M0 0 C1.08381454 -0.00043808 2.16762909 -0.00087616 3.2842865 -0.00132751 C6.84465944 0.00075221 10.40455369 0.0240453 13.96484375 0.04760742 C16.44205468 0.05320626 18.91926893 0.057475 21.39648438 0.06047058 C27.9000982 0.07189657 34.4035094 0.1013447 40.90704346 0.13458252 C47.54998404 0.16533171 54.1929445 0.17898627 60.8359375 0.1940918 C73.85815911 0.22621632 86.88024062 0.2768048 99.90234375 0.34057617 C99.76510221 1.93779025 99.62144549 3.53445393 99.47509766 5.13085938 C99.3957901 6.02005569 99.31648254 6.90925201 99.23477173 7.82539368 C98.27026551 15.12294179 93.652437 22.99859609 88.03179932 27.75532532 C76.25085589 36.52552504 62.64646365 34.9858659 48.66796875 34.82885742 C46.21889979 34.81951925 43.76982143 34.81240789 41.32073975 34.80741882 C34.90907507 34.78842837 28.4979866 34.7393958 22.08654785 34.68389893 C15.53043408 34.63253467 8.97422621 34.60986817 2.41796875 34.5847168 C-10.42081718 34.53126965 -23.25920591 34.44702948 -36.09765625 34.34057617 C-36.17087838 24.22307659 -34.18070161 16.91927482 -27.09765625 9.34057617 C-18.87192685 1.81309709 -10.89270568 -0.11641931 0 0 Z " fill="#FBFBFC" transform="translate(235.09765625,139.659423828125)"/>
<path d="M0 0 C1.29966202 0.0028299 2.59932404 0.00565979 3.93836975 0.00857544 C7.3726488 0.01616595 10.80675532 0.03577427 14.2409668 0.0579834 C17.75371976 0.07854129 21.26650094 0.0875983 24.77929688 0.09765625 C31.65632031 0.11902514 38.53322997 0.15310486 45.41015625 0.1953125 C45.27321982 2.12555927 45.12950655 4.05532612 44.98291016 5.98486328 C44.9036026 7.05954865 44.82429504 8.13423401 44.74258423 9.2414856 C43.95955738 16.1991604 39.98994298 22.14112411 34.78515625 26.6953125 C33.67041564 27.54232065 32.54674909 28.37786149 31.41015625 29.1953125 C30.75015625 29.7728125 30.09015625 30.3503125 29.41015625 30.9453125 C22.5461117 35.23534034 14.60906202 34.4547181 6.8203125 34.390625 C5.52065048 34.3877951 4.22098846 34.38496521 2.88194275 34.38204956 C-0.5523363 34.37445905 -3.98644282 34.35485073 -7.4206543 34.3326416 C-10.93340726 34.31208371 -14.44618844 34.3030267 -17.95898438 34.29296875 C-24.83600781 34.27159986 -31.71291747 34.23752014 -38.58984375 34.1953125 C-38.43686228 32.75389391 -38.28184864 31.3126909 -38.12597656 29.87158203 C-38.03987122 29.06898956 -37.95376587 28.26639709 -37.86505127 27.43948364 C-36.84969202 19.15976826 -34.06925334 11.84114775 -27.51171875 6.50390625 C-18.5123236 0.15229233 -10.78100347 -0.08871615 0 0 Z " fill="#FAFAFC" transform="translate(237.58984375,183.8046875)"/>
<path d="M0 0 C4.393125 -0.061875 4.393125 -0.061875 8.875 -0.125 C9.79651855 -0.14320801 10.71803711 -0.16141602 11.66748047 -0.18017578 C12.39338379 -0.1851709 13.11928711 -0.19016602 13.8671875 -0.1953125 C14.61081543 -0.20578613 15.35444336 -0.21625977 16.12060547 -0.22705078 C18 0 18 0 20 2 C19.35933594 2.556875 18.71867187 3.11375 18.05859375 3.6875 C13.3418997 7.84887537 8.96123416 12.0282753 4.91015625 16.8359375 C2.55257122 19.50690296 0.03593586 22.00074883 -2.5 24.5 C-14.41273604 36.3049646 -24.87803924 49.64341264 -35 63 C-35.59844727 63.76932861 -35.59844727 63.76932861 -36.20898438 64.55419922 C-43.67535627 74.17055923 -49.59509888 84.09677971 -55 95 C-55.495 94.01 -55.495 94.01 -56 93 C-61.61 93 -67.22 93 -73 93 C-73.02683987 90.02077407 -73.04676037 87.04178705 -73.0625 84.0625 C-73.07087891 83.21236328 -73.07925781 82.36222656 -73.08789062 81.48632812 C-73.09111328 80.67744141 -73.09433594 79.86855469 -73.09765625 79.03515625 C-73.10289307 78.2862915 -73.10812988 77.53742676 -73.11352539 76.76586914 C-73 75 -73 75 -72 74 C-69.3013095 73.92674564 -66.63497444 73.90777649 -63.9375 73.9375 C-61.318125 73.958125 -58.69875 73.97875 -56 74 C-56 68.06 -56 62.12 -56 56 C-49.73 56 -43.46 56 -37 56 C-37 49.73 -37 43.46 -37 37 C-31.06 37 -25.12 37 -19 37 C-19.03957481 31.45026879 -19.03957481 31.45026879 -19.09008789 25.90063477 C-19.09723091 23.93354026 -19.05031893 21.96646379 -19 20 C-18 19 -18 19 -16.23413086 18.88647461 C-15.48526611 18.89171143 -14.73640137 18.89694824 -13.96484375 18.90234375 C-12.87224243 18.90609009 -12.87224243 18.90609009 -11.75756836 18.90991211 C-10.8269458 18.91901611 -9.89632324 18.92812012 -8.9375 18.9375 C-4.5134375 18.9684375 -4.5134375 18.9684375 0 19 C0 12.73 0 6.46 0 0 Z " fill="#EFF0F0" transform="translate(73,49)"/>
<path d="M0 0 C1.16337891 0.00322266 2.32675781 0.00644531 3.52539062 0.00976562 C4.74033203 0.01814453 5.95527344 0.02652344 7.20703125 0.03515625 C8.43357422 0.03966797 9.66011719 0.04417969 10.92382812 0.04882812 C13.95577793 0.0606256 16.98763031 0.07708704 20.01953125 0.09765625 C18.75332762 11.93227235 14.54760564 20.31246212 6.33203125 28.91015625 C-1.70950869 34.22060716 -10.79459168 34.51964099 -20.16796875 34.28515625 C-21.73901367 34.26485352 -21.73901367 34.26485352 -23.34179688 34.24414062 C-25.88858999 34.20925305 -28.434232 34.16024495 -30.98046875 34.09765625 C-31.21878561 24.37847313 -29.18233457 17.24473561 -22.79296875 9.66015625 C-18.65669288 5.35295989 -14.63867665 2.90419251 -8.98046875 1.09765625 C-5.74295197 0.01848399 -3.40295104 -0.01659976 0 0 Z " fill="#F9FAFB" transform="translate(229.98046875,226.90234375)"/>
<path d="M0 0 C0.495 1.485 0.495 1.485 1 3 C2.65 3 4.3 3 6 3 C6 8.94 6 14.88 6 21 C-2.4375 21.4375 -2.4375 21.4375 -5.09936523 21.56811523 C-8.85970733 21.42687477 -8.85970733 21.42687477 -12 23 C-12.23701239 25.85877909 -12.42219182 28.69883297 -12.5625 31.5625 C-12.60568359 32.36880859 -12.64886719 33.17511719 -12.69335938 34.00585938 C-12.79975262 36.00368805 -12.90040888 38.0018207 -13 40 C-14.08667969 39.91298828 -14.08667969 39.91298828 -15.1953125 39.82421875 C-21.79023104 39.39401493 -21.79023104 39.39401493 -27.5625 42.125 C-30.06566243 45.07744799 -31.12921943 47.25564354 -32 51 C-32.66 51 -33.32 51 -34 51 C-34.33 51.66 -34.66 52.32 -35 53 C-36.4001116 55.8002232 -38.26572551 56.56776098 -41 58 C-41.99 58 -42.98 58 -44 58 C-42.91332031 56.83984375 -42.91332031 56.83984375 -41.8046875 55.65625 C-40.82792521 54.60435215 -39.85137414 53.55225814 -38.875 52.5 C-38.400625 51.9946875 -37.92625 51.489375 -37.4375 50.96875 C-34.21875119 47.48902156 -31.34132925 43.85944902 -28.53125 40.04394531 C-25.98632509 36.64692501 -23.26342801 33.39821974 -20.5625 30.125 C-12.74501414 20.55680352 -6.08685713 10.76763177 0 0 Z " fill="#EDEEEF" transform="translate(365,251)"/>
<path d="M0 0 C0.99 0.33 1.98 0.66 3 1 C2.34 1.66 1.68 2.32 1 3 C0.63168919 4.93257855 0.63168919 4.93257855 0.5859375 7.1328125 C0.53252197 8.22166748 0.53252197 8.22166748 0.47802734 9.33251953 C0.44402832 10.25403809 0.4100293 11.17555664 0.375 12.125 C0.25125 15.05375 0.1275 17.9825 0 21 C-6.27 21 -12.54 21 -19 21 C-19.020625 18.050625 -19.04125 15.10125 -19.0625 12.0625 C-19.071604 11.13187744 -19.08070801 10.20125488 -19.09008789 9.24243164 C-19.09258545 8.51403076 -19.09508301 7.78562988 -19.09765625 7.03515625 C-19.10289307 6.2862915 -19.10812988 5.53742676 -19.11352539 4.76586914 C-19 3 -19 3 -18 2 C-16.65732587 1.91368126 -15.31025678 1.89293527 -13.96484375 1.90234375 C-13.15595703 1.90556641 -12.34707031 1.90878906 -11.51367188 1.91210938 C-10.66353516 1.92048828 -9.81339844 1.92886719 -8.9375 1.9375 C-8.08349609 1.94201172 -7.22949219 1.94652344 -6.34960938 1.95117188 C-4.23304337 1.96299627 -2.11651315 1.98093231 0 2 C0 1.34 0 0.68 0 0 Z " fill="#FDFDFD" transform="translate(129,363)"/>
<path d="M0 0 C0.74362793 0.01047363 1.48725586 0.02094727 2.25341797 0.03173828 C3.34227295 0.03923096 3.34227295 0.03923096 4.453125 0.046875 C5.83540283 0.07418701 5.83540283 0.07418701 7.24560547 0.10205078 C10.17435547 0.14330078 13.10310547 0.18455078 16.12060547 0.22705078 C15.79060547 6.49705078 15.46060547 12.76705078 15.12060547 19.22705078 C5.71560547 19.72205078 5.71560547 19.72205078 -3.87939453 20.22705078 C-3.92064453 17.29830078 -3.96189453 14.36955078 -4.00439453 11.35205078 C-4.02260254 10.43053223 -4.04081055 9.50901367 -4.05957031 8.55957031 C-4.06456543 7.83366699 -4.06956055 7.10776367 -4.07470703 6.35986328 C-4.09041748 5.24442139 -4.09041748 5.24442139 -4.10644531 4.10644531 C-3.77623674 1.37317052 -2.7332748 0.33020857 0 0 Z " fill="#FDFDFD" transform="translate(355.87939453125,271.77294921875)"/>
<path d="M0 0 C5.94 0 11.88 0 18 0 C17.67 6.27 17.34 12.54 17 19 C11.39 19 5.78 19 0 19 C0 12.73 0 6.46 0 0 Z " fill="#FDFDFD" transform="translate(0,365)"/>
<path d="M0 0 C5.94 0 11.88 0 18 0 C18 5.94 18 11.88 18 18 C12.06 18 6.12 18 0 18 C0 12.06 0 6.12 0 0 Z " fill="#F0F0F0" transform="translate(334,347)"/>
<path d="M0 0 C5.94 0 11.88 0 18 0 C18 5.94 18 11.88 18 18 C12.06 18 6.12 18 0 18 C0 12.06 0 6.12 0 0 Z " fill="#F0F0F0" transform="translate(36,347)"/>
<path d="M0 0 C5.94 0 11.88 0 18 0 C17.67 6.27 17.34 12.54 17 19 C11.39 19 5.78 19 0 19 C0 12.73 0 6.46 0 0 Z " fill="#FDFDFD" transform="translate(0,328)"/>
<path d="M0 0 C5.94 0 11.88 0 18 0 C18 5.94 18 11.88 18 18 C12.06 18 6.12 18 0 18 C0 12.06 0 6.12 0 0 Z " fill="#F0F0F0" transform="translate(334,310)"/>
<path d="M0 0 C5.94 0 11.88 0 18 0 C18 5.94 18 11.88 18 18 C12.06 18 6.12 18 0 18 C0 12.06 0 6.12 0 0 Z " fill="#FDFDFD" transform="translate(334,68)"/>
<path d="M0 0 C5.94 0 11.88 0 18 0 C17.67 6.27 17.34 12.54 17 19 C11.39 19 5.78 19 0 19 C0 12.73 0 6.46 0 0 Z " fill="#FDFDFD" transform="translate(0,30)"/>
<path d="M0 0 C5.94 0 11.88 0 18 0 C18 5.94 18 11.88 18 18 C12.06 18 6.12 18 0 18 C0 12.06 0 6.12 0 0 Z " fill="#FDFDFD" transform="translate(278,12)"/>
<path d="M0 0 C5.61 0 11.22 0 17 0 C17 6.27 17 12.54 17 19 C11.39 19 5.78 19 0 19 C0 12.73 0 6.46 0 0 Z " fill="#FDFDFD" transform="translate(0,291)"/>
<path d="M0 0 C5.61 0 11.22 0 17 0 C17 5.94 17 11.88 17 18 C8.585 18.495 8.585 18.495 0 19 C0 12.73 0 6.46 0 0 Z " fill="#FDFDFD" transform="translate(0,105)"/>
<path d="M0 0 C5.61 0 11.22 0 17 0 C17 5.94 17 11.88 17 18 C11.39 18 5.78 18 0 18 C0 12.06 0 6.12 0 0 Z " fill="#F0F0F0" transform="translate(0,310)"/>
<path d="M0 0 C5.61 0 11.22 0 17 0 C17 5.94 17 11.88 17 18 C11.39 18 5.78 18 0 18 C0 12.06 0 6.12 0 0 Z " fill="#FDFDFD" transform="translate(0,254)"/>
<path d="M0 0 C5.61 0 11.22 0 17 0 C17 5.94 17 11.88 17 18 C11.39 18 5.78 18 0 18 C0 12.06 0 6.12 0 0 Z " fill="#FDFDFD" transform="translate(0,68)"/>
<path d="M0 0 C5.61 0 11.22 0 17 0 C17 5.94 17 11.88 17 18 C11.39 18 5.78 18 0 18 C0 12.06 0 6.12 0 0 Z " fill="#F0F0F0" transform="translate(0,12)"/>
<path d="M0 0 C0.66 0.33 1.32 0.66 2 1 C-0.05233685 3.2477975 -1.00667261 4.0022242 -4 5 C-4.33 10.94 -4.66 16.88 -5 23 C-10.94 23 -16.88 23 -23 23 C-23 20.36 -23 17.72 -23 15 C-23.7425 15.350625 -24.485 15.70125 -25.25 16.0625 C-28.21122875 17.0720098 -29.12062561 16.87980884 -32 16 C-30.90558594 15.63261719 -30.90558594 15.63261719 -29.7890625 15.2578125 C-13.7757155 9.55167087 -13.7757155 9.55167087 0 0 Z " fill="#E9EBEE" transform="translate(264,361)"/>
<path d="M0 0 C1.97805628 2.96708442 2.82732841 5.30637805 3.875 8.6875 C5.10615058 12.52032729 6.42643562 16.06823499 8.3125 19.625 C8.869375 20.73875 9.42625 21.8525 10 23 C9.67 23.66 9.34 24.32 9 25 C3.39 25 -2.22 25 -8 25 C-8 18.73 -8 12.46 -8 6 C-5.03 6 -2.06 6 1 6 C0.67 4.02 0.34 2.04 0 0 Z " fill="#EFEFEF" transform="translate(8,229)"/>
<path d="M0 0 C5.61 0 11.22 0 17 0 C16.19440249 4.83358504 15.21827093 8.40024228 13.4375 12.875 C12.98246094 14.02742187 12.52742187 15.17984375 12.05859375 16.3671875 C11.70925781 17.23601562 11.35992187 18.10484375 11 19 C7.37 19 3.74 19 0 19 C0 12.73 0 6.46 0 0 Z " fill="#FCFCFC" transform="translate(0,142)"/>
<path d="M0 0 C4.30836392 0.86167278 8.21435978 2.05576873 12.3125 3.5625 C12.95767578 3.79646484 13.60285156 4.03042969 14.26757812 4.27148438 C15.84621219 4.84447007 17.42327026 5.42179464 19 6 C19 7.98 19 9.96 19 12 C13.06 12.33 7.12 12.66 1 13 C0.67 13.99 0.34 14.98 0 16 C-5.94 16 -11.88 16 -18 16 C-18 14.68 -18 13.36 -18 12 C-12.06 12 -6.12 12 0 12 C0 8.04 0 4.08 0 0 Z " fill="#FCFCFC" transform="translate(147,372)"/>
<path d="M0 0 C5.94 0 11.88 0 18 0 C18 3.96 18 7.92 18 12 C12.06 12 6.12 12 0 12 C0 8.04 0 4.08 0 0 Z " fill="#F0F0F0" transform="translate(92,0)"/>
<path d="M0 0 C5.61 0 11.22 0 17 0 C17 3.96 17 7.92 17 12 C11.39 12 5.78 12 0 12 C0 8.04 0 4.08 0 0 Z " fill="#FDFDFD" transform="translate(0,0)"/>
<path d="M0 0 C6.27 0 12.54 0 19 0 C19 1.98 19 3.96 19 6 C16.33674771 7.01019914 13.67072374 8.00994871 11 9 C9.948125 9.391875 8.89625 9.78375 7.8125 10.1875 C5 11 5 11 0 11 C0 7.37 0 3.74 0 0 Z " fill="#FBFCFC" transform="translate(147,0)"/>
<path d="M0 0 C3.3 0 6.6 0 10 0 C10.39873011 6.11386163 9.12115707 11.26298451 7 17 C6.67 17.33 6.34 17.66 6 18 C4.02 18 2.04 18 0 18 C0 12.06 0 6.12 0 0 Z " fill="#EBECEE" transform="translate(0,161)"/>
<path d="M0 0 C6.27 0 12.54 0 19 0 C19 3.3 19 6.6 19 10 C12.64585389 8.74706978 6.31739618 7.42650882 0 6 C0 4.02 0 2.04 0 0 Z " fill="#ECEDEF" transform="translate(203,0)"/>
<path d="M0 0 C0.50220072 2.6245966 1.00185357 5.24963369 1.5 7.875 C1.64308594 8.62136719 1.78617187 9.36773437 1.93359375 10.13671875 C3 15.7734375 3 15.7734375 3 18 C0.03 18 -2.94 18 -6 18 C-6 12.06 -6 6.12 -6 0 C-3 -1 -3 -1 0 0 Z " fill="#F8F9FB" transform="translate(6,217)"/>
<path d="M0 0 C4.35312577 3.24505739 8.6918052 6.50795756 13 9.8125 C13.763125 10.39644531 14.52625 10.98039062 15.3125 11.58203125 C16.1478125 12.28392578 16.1478125 12.28392578 17 13 C17 13.33 17 13.66 17 14 C11.72 14 6.44 14 1 14 C0.67 9.38 0.34 4.76 0 0 Z " fill="#EAECEF" transform="translate(91,333)"/>
<path d="M0 0 C7.26 0 14.52 0 22 0 C20.68 0.33 19.36 0.66 18 1 C18 2.32 18 3.64 18 5 C12.06 5 6.12 5 0 5 C0 3.35 0 1.7 0 0 Z " fill="#E4E7EE" transform="translate(185,383)"/>
<path d="M0 0 C6.27 0 12.54 0 19 0 C19 1.32 19 2.64 19 4 C12.73 4 6.46 4 0 4 C0 2.68 0 1.36 0 0 Z " fill="#F0F0F0" transform="translate(371,384)"/>
<path d="M0 0 C6.27 0 12.54 0 19 0 C19 1.32 19 2.64 19 4 C12.73 4 6.46 4 0 4 C0 2.68 0 1.36 0 0 Z " fill="#F0F0F0" transform="translate(259,384)"/>
<path d="M0 0 C5.94 0 11.88 0 18 0 C18 1.32 18 2.64 18 4 C11.73 4 5.46 4 -1 4 C-0.67 2.68 -0.34 1.36 0 0 Z " fill="#FCFCFC" transform="translate(167,384)"/>
<path d="M0 0 C18.81 0 37.62 0 57 0 C59 5 59 5 57.625 8.3125 C57.08875 9.199375 56.5525 10.08625 56 11 C54.63051084 7.04369799 55.22208258 5.66750453 56 1 C37.52 1 19.04 1 0 1 C0 0.67 0 0.34 0 0 Z " fill="#A2B4DC" transform="translate(227,183)"/>
<path d="M0 0 C0 3.63 0 7.26 0 11 C-3.96 11 -7.92 11 -12 11 C-2.90384615 0 -2.90384615 0 0 0 Z " fill="#E8EAEE" transform="translate(296,336)"/>
<path d="M0 0 C5.94 0 11.88 0 18 0 C18 1.32 18 2.64 18 4 C12.06 4 6.12 4 0 4 C0 2.68 0 1.36 0 0 Z " fill="#F0F0F0" transform="translate(334,384)"/>
<path d="M0 0 C5.94 0 11.88 0 18 0 C18 1.32 18 2.64 18 4 C12.06 4 6.12 4 0 4 C0 2.68 0 1.36 0 0 Z " fill="#FDFDFD" transform="translate(278,384)"/>
<path d="M0 0 C5.94 0 11.88 0 18 0 C18 1.32 18 2.64 18 4 C12.06 4 6.12 4 0 4 C0 2.68 0 1.36 0 0 Z " fill="#FDFDFD" transform="translate(241,384)"/>
<path d="M0 0 C5.94 0 11.88 0 18 0 C18 1.32 18 2.64 18 4 C12.06 4 6.12 4 0 4 C0 2.68 0 1.36 0 0 Z " fill="#FDFDFD" transform="translate(92,384)"/>
<path d="M0 0 C5.94 0 11.88 0 18 0 C18 1.32 18 2.64 18 4 C12.06 4 6.12 4 0 4 C0 2.68 0 1.36 0 0 Z " fill="#F0F0F0" transform="translate(36,384)"/>
<path d="M0 0 C1.92024768 3.84049536 0.43149256 8.87684882 0 13 C-3.63 13 -7.26 13 -11 13 C-10.113125 11.96875 -9.22625 10.9375 -8.3125 9.875 C-5.51121718 6.60794569 -2.74710654 3.3126873 0 0 Z " fill="#E7E9EE" transform="translate(315,315)"/>
<path d="M0 0 C5.94 0 11.88 0 18 0 C18 1.65 18 3.3 18 5 C12 4.33333333 6 3.66666667 0 3 C0 2.01 0 1.02 0 0 Z " fill="#FAFBFC" transform="translate(185,0)"/>
<path d="M0 0 C1 2 1 2 0.4375 4.3125 C-1 7 -1 7 -4 9.4375 C-7.25583994 12.21852995 -8.0469276 13.90178869 -9 18 C-9.66 18 -10.32 18 -11 18 C-11.33 18.66 -11.66 19.32 -12 20 C-13.4001116 22.8002232 -15.26572551 23.56776098 -18 25 C-18.99 25 -19.98 25 -21 25 C-19.91332031 23.83984375 -19.91332031 23.83984375 -18.8046875 22.65625 C-13.52471455 16.98185403 -8.52711013 11.30301828 -4 5 C-2.67518731 3.32655239 -1.34592097 1.65651812 0 0 Z " fill="#E2E6ED" transform="translate(342,284)"/>
<path d="M0 0 C4.15358254 3.43469325 7.78875342 6.63270466 11 11 C7.37 11 3.74 11 0 11 C0 7.37 0 3.74 0 0 Z " fill="#E9EBEE" transform="translate(73,317)"/>
<path d="M0 0 C3.92446674 3.80904125 7.47412292 7.81814579 11 12 C7.37 12 3.74 12 0 12 C0 10.02 0 8.04 0 6 C0.66 6 1.32 6 2 6 C2 5.34 2 4.68 2 4 C1.34 4 0.68 4 0 4 C0 2.68 0 1.36 0 0 Z " fill="#E5E7EC" transform="translate(36,279)"/>
<path d="M0 0 C0.33 0 0.66 0 1 0 C1.33 7.59 1.66 15.18 2 23 C0.35 23.33 -1.3 23.66 -3 24 C-3.05429959 22.25034642 -3.09292823 20.50020213 -3.125 18.75 C-3.15980469 17.28820312 -3.15980469 17.28820312 -3.1953125 15.796875 C-2.99378283 12.91097009 -2.33482834 11.50785931 -1 9 C-0.55188863 6.64435404 -0.55188863 6.64435404 -0.375 4.25 C-0.30023438 3.45078125 -0.22546875 2.6515625 -0.1484375 1.828125 C-0.09945313 1.22484375 -0.05046875 0.6215625 0 0 Z " fill="#E2E5EC" transform="translate(3,193)"/>
<path d="M0 0 C2.31 0.66 4.62 1.32 7 2 C6.42655063 4.86724686 6.1385485 5.8614515 4 8 C3.75787127 9.98128508 3.75787127 9.98128508 3.875 12.125 C3.936875 14.043125 3.936875 14.043125 4 16 C3.67 16 3.34 16 3 16 C2.01 10.72 1.02 5.44 0 0 Z " fill="#E2E5EB" transform="translate(379,159)"/>
<path d="M0 0 C0 1.32 0 2.64 0 4 C-1.98 4.66 -3.96 5.32 -6 6 C-6 6.66 -6 7.32 -6 8 C-7.98 8.33 -9.96 8.66 -12 9 C-3.25 0 -3.25 0 0 0 Z " fill="#E0E2EC" transform="translate(278,352)"/>
<path d="M0 0 C0.66 0.33 1.32 0.66 2 1 C-2.16704183 5.85743929 -6.41844996 10.53019508 -11 15 C-11.66 14.67 -12.32 14.34 -13 14 C-12.39671875 13.40832031 -11.7934375 12.81664063 -11.171875 12.20703125 C-5.26989543 6.38766162 -5.26989543 6.38766162 0 0 Z " fill="#7486C7" transform="translate(85,57)"/>
<path d="M0 0 C1.36722938 3.69151932 0.5123038 5.47129113 -1 9 C-1.37593066 10.9924325 -1.71979545 12.9918674 -2 15 C-2.33 14.01 -2.66 13.02 -3 12 C-3.99 12 -4.98 12 -6 12 C-5.67 10.35 -5.34 8.7 -5 7 C-4.01 7.33 -3.02 7.66 -2 8 C-1.7834375 6.576875 -1.7834375 6.576875 -1.5625 5.125 C-1 2 -1 2 0 0 Z " fill="#8796CF" transform="translate(201,203)"/>
<path d="M0 0 C0.33 0.99 0.66 1.98 1 3 C0.44570312 3.54269531 -0.10859375 4.08539063 -0.6796875 4.64453125 C-1.76636719 5.71767578 -1.76636719 5.71767578 -2.875 6.8125 C-3.59429687 7.52019531 -4.31359375 8.22789063 -5.0546875 8.95703125 C-7.15358937 11.04399194 -7.15358937 11.04399194 -9 14 C-9.66 14 -10.32 14 -11 14 C-9.42219077 10.28954753 -7.09296752 7.70093616 -4.375 4.75 C-3.55773438 3.85796875 -2.74046875 2.9659375 -1.8984375 2.046875 C-1.27195312 1.37140625 -0.64546875 0.6959375 0 0 Z " fill="#7787C8" transform="translate(67,76)"/>
<path d="M0 0 C1.98 0 3.96 0 6 0 C4.79618552 2.49361571 3.54571278 4.68143083 2 7 C1.34 7 0.68 7 0 7 C0 4.69 0 2.38 0 0 Z " fill="#F7F8FA" transform="translate(36,105)"/>
<path d="M0 0 C1.32 0.66 2.64 1.32 4 2 C2.35 4.31 0.7 6.62 -1 9 C-2.0625 7.125 -2.0625 7.125 -3 5 C-2.67 4.34 -2.34 3.68 -2 3 C-1.34 3 -0.68 3 0 3 C0 2.01 0 1.02 0 0 Z " fill="#6C7BC5" transform="translate(355,261)"/>
<path d="M0 0 C4.26086957 6.39130435 4.26086957 6.39130435 3.625 10.3125 C3.41875 10.869375 3.2125 11.42625 3 12 C3 11.01 3 10.02 3 9 C1.68 9.33 0.36 9.66 -1 10 C-1 8.68 -1 7.36 -1 6 C-0.34 6 0.32 6 1 6 C0.67 4.02 0.34 2.04 0 0 Z " fill="#D9DCEB" transform="translate(8,229)"/>
<path d="M0 0 C2.31 1.98 4.62 3.96 7 6 C4 7 4 7 1 6 C0.67 4.02 0.34 2.04 0 0 Z " fill="#E8EBEE" transform="translate(58,303)"/>
<path d="M0 0 C1 3 1 3 1 5 C-0.875 7.125 -0.875 7.125 -3 9 C-3.66 9 -4.32 9 -5 9 C-4.42647107 5.12867972 -2.51295648 2.91827204 0 0 Z " fill="#7986CA" transform="translate(138,225)"/>
<path d="M0 0 C2.64 0 5.28 0 8 0 C8 0.66 8 1.32 8 2 C9.32 2.66 10.64 3.32 12 4 C7.80530429 3.40075776 3.99000166 2.42500059 0 1 C0 0.67 0 0.34 0 0 Z " fill="#C5CCE2" transform="translate(228,12)"/>
<path d="M0 0 C0 0.99 0 1.98 0 3 C-3.3 2.67 -6.6 2.34 -10 2 C-10 1.67 -10 1.34 -10 1 C-6.59437148 0.22157062 -3.49234244 -0.09978121 0 0 Z " fill="#D0D6E5" transform="translate(222,381)"/>
<path d="M0 0 C0.33 0.99 0.66 1.98 1 3 C-0.65 4.65 -2.3 6.3 -4 8 C-3.50168276 4.31245243 -2.89932357 2.39509338 0 0 Z " fill="#6B7DC3" transform="translate(333,292)"/>
<path d="M0 0 C0.99 0 1.98 0 3 0 C2.25 5.75 2.25 5.75 0 8 C0 5.36 0 2.72 0 0 Z " fill="#F1F0F0" transform="translate(0,198)"/>
<path d="M0 0 C0.33 0.66 0.66 1.32 1 2 C-0.25 4.5625 -0.25 4.5625 -2 7 C-2.99 7.33 -3.98 7.66 -5 8 C-3.8141763 4.62496331 -2.72426311 2.35277269 0 0 Z " fill="#7D8BCC" transform="translate(193,150)"/>
<path d="M0 0 C0.33 0.66 0.66 1.32 1 2 C0.0625 4.625 0.0625 4.625 -1 7 C-2.32 6.67 -3.64 6.34 -5 6 C-3.35 4.02 -1.7 2.04 0 0 Z " fill="#DAE0E9" transform="translate(342,284)"/>
<path d="M0 0 C0.33 0.99 0.66 1.98 1 3 C-0.65 4.65 -2.3 6.3 -4 8 C-4.66 7.67 -5.32 7.34 -6 7 C-4.02 4.69 -2.04 2.38 0 0 Z " fill="#D3D8E6" transform="translate(351,273)"/>
</svg>
